<svg id="Layer_3" data-name="Layer 3" xmlns="http://www.w3.org/2000/svg" viewBox="0 0 1024 120.59"><defs><style>.cls-1{fill:#3e3bf7;}.cls-2{fill:#fff;}</style></defs><g id="ReturnPolicy_logo_footer"><g id="Group_650" data-name="Group 650"><path class="cls-1" d="M111.35,532.51A63.11,63.11,0,0,0,95,507.09a22.68,22.68,0,0,0,12.55-7.8,30.46,30.46,0,0,0,6-19.49,28.12,28.12,0,0,0-2-10.76,25.31,25.31,0,0,0-5.48-8.32,23.73,23.73,0,0,0-8.39-5.35A30,30,0,0,0,87,453.52H43.68v40.39H23.58l9.25-9.25-8.41-8.41L0,500.68H0l24.42,24.43,8.41-8.41-9.26-9.26H43.68v37.85H58.6V507.63h6A38.26,38.26,0,0,1,99,540.13a10.37,10.37,0,0,0,11.08,6.72,33,33,0,0,0,3.44-.46,15.73,15.73,0,0,0,3.17-1.12V533.91C112.72,535.26,111.74,533.58,111.35,532.51ZM58.6,467.23H84.91a14.77,14.77,0,0,1,10.63,3.11,12.8,12.8,0,0,1,3.1,9.44,14.4,14.4,0,0,1-3.43,11.05,17.67,17.67,0,0,1-11.88,3.1H65.94v0H58.63Z" transform="translate(0 -451.71)"/><path id="Path_9372" data-name="Path 9372" class="cls-1" d="M134.85,516.49a24.12,24.12,0,0,0,1,7.07,13.3,13.3,0,0,0,3.3,5.53,16,16,0,0,0,6.14,3.63A29.48,29.48,0,0,0,154.8,534a17,17,0,0,0,7.8-1.45,26.88,26.88,0,0,0,5.94-4.5L180.43,533a26,26,0,0,1-11.23,10.5,32,32,0,0,1-48.73-30.57v-4.76c0-1,0-2.06.13-3a27.47,27.47,0,0,1,2.9-11.49,28.94,28.94,0,0,1,7-8.85,31.46,31.46,0,0,1,10.05-5.68,36.42,36.42,0,0,1,12-2,34.08,34.08,0,0,1,12.94,2.32A26.69,26.69,0,0,1,181.17,496a39.59,39.59,0,0,1,2,13v7.54Zm0-12.28h33.94a14,14,0,0,0-1.19-5.81,12.61,12.61,0,0,0-3.37-4.49,16.38,16.38,0,0,0-5.15-2.9,19.35,19.35,0,0,0-6.53-1.06,26.65,26.65,0,0,0-6.47.79,16.61,16.61,0,0,0-5.68,2.58,13.5,13.5,0,0,0-4,4.49,12.86,12.86,0,0,0-1.54,6.4Z" transform="translate(0 -451.71)"/><path id="Path_9373" data-name="Path 9373" class="cls-1" d="M197.05,490.61h-7.53V478.72h7.53V464.46l14.4-3.17v17.43H222l-3.7,11.89h-6.87v35.52a7.12,7.12,0,0,0,6.17,8,7.2,7.2,0,0,0,2,0h3.3v11.36a32.77,32.77,0,0,1-3.63,1.06,17.65,17.65,0,0,1-3.76.39,24.47,24.47,0,0,1-7.07-1,16,16,0,0,1-5.88-3.1,15.14,15.14,0,0,1-4-5.48,19.66,19.66,0,0,1-1.5-8.12Z" transform="translate(0 -451.71)"/><path id="Path_9374" data-name="Path 9374" class="cls-1" d="M255,546.87a27,27,0,0,1-18.89-5.94,23.82,23.82,0,0,1-6.47-18.36V481.23l14.4-4.09v42.39a49.44,49.44,0,0,0,.32,6.08,11.14,11.14,0,0,0,1.51,4.55,7.51,7.51,0,0,0,3.37,2.91,16,16,0,0,0,10.9.06,20.77,20.77,0,0,0,4.55-2.44,33,33,0,0,0,4.1-3.36q1.91-1.86,3.63-3.84V481.23l14.39-4.09v53a29.85,29.85,0,0,0,.93,8.2,25,25,0,0,0,1.12,3.36,30.63,30.63,0,0,0,1.78,3.64H275.49a14.25,14.25,0,0,1-1.71-3.77,13.75,13.75,0,0,1-.66-4,43.78,43.78,0,0,1-8.13,6.67A18.36,18.36,0,0,1,255,546.87Z" transform="translate(0 -451.71)"/><path id="Path_9375" data-name="Path 9375" class="cls-1" d="M315.7,485.46a20,20,0,0,1,5.82-6.15,14.64,14.64,0,0,1,8.18-2.17,24.69,24.69,0,0,1,11,2.9l-5,13.34a12.63,12.63,0,0,0-6.47-2,10.09,10.09,0,0,0-6.87,2.31,15.47,15.47,0,0,0-4.1,5.81,30.11,30.11,0,0,0-2,7.46,55,55,0,0,0-.5,7.14v31.15H301.33V495.08a35.33,35.33,0,0,0-.53-6.41,20.38,20.38,0,0,0-2-5.61l12.94-5.94c.7,1.32,1.34,2.66,1.91,4a20.11,20.11,0,0,1,1.26,4.29Z" transform="translate(0 -451.71)"/><path id="Path_9376" data-name="Path 9376" class="cls-1" d="M381.47,489.82a22.88,22.88,0,0,0-4.52.46,32.17,32.17,0,0,0-4.62,1.25,22.53,22.53,0,0,0-4.29,2.05,16.07,16.07,0,0,0-3.52,2.84v48.89h-14.4V495.12a33.79,33.79,0,0,0-.5-6.27,24.31,24.31,0,0,0-2-5.74l12.94-5.95a35.46,35.46,0,0,1,1.85,3.7,24.79,24.79,0,0,1,1.32,4.1h.8a22,22,0,0,1,4-3.17,33.34,33.34,0,0,1,4.81-2.52,27.52,27.52,0,0,1,5.09-1.58,23.69,23.69,0,0,1,4.82-.5,33.47,33.47,0,0,1,10.37,1.5,23.83,23.83,0,0,1,8.12,4.43,19.65,19.65,0,0,1,5.35,7.33,25.34,25.34,0,0,1,1.91,10.1v44.76H394.62V503.45Q394.68,489.82,381.47,489.82Z" transform="translate(0 -451.71)"/></g><g id="Group_656" data-name="Group 656"><path id="Path_9377" data-name="Path 9377" class="cls-2" d="M424.26,545.31V453.52h45.43a29.37,29.37,0,0,1,11.49,2.12,22.46,22.46,0,0,1,8.32,5.87,25.63,25.63,0,0,1,5,9,36.85,36.85,0,0,1,1.71,11.56,41.52,41.52,0,0,1-1.65,11.88,27.64,27.64,0,0,1-4.89,9.58,22.31,22.31,0,0,1-8.25,6.34,27.67,27.67,0,0,1-11.76,2.31h-30.5v33.16Zm14.93-78v30.9h25.36a17.83,17.83,0,0,0,12.74-3.89,16.4,16.4,0,0,0,4-12.22,13.73,13.73,0,0,0-4.3-11.36,19.6,19.6,0,0,0-12.47-3.43Z" transform="translate(0 -451.71)"/><path id="Path_9378" data-name="Path 9378" class="cls-2" d="M534.66,546.87a34.11,34.11,0,0,1-14-2.71,28.79,28.79,0,0,1-10.17-7.39,31.88,31.88,0,0,1-6.21-11A43.33,43.33,0,0,1,502.18,512v-2.51a37.36,37.36,0,0,1,2.44-12.94,29.73,29.73,0,0,1,6.54-10.24,30.1,30.1,0,0,1,10.17-6.73,34.94,34.94,0,0,1,13.33-2.45,34.13,34.13,0,0,1,13,2.45,33.44,33.44,0,0,1,10.5,6.67,29.54,29.54,0,0,1,7,10.17,32.51,32.51,0,0,1,2.51,12.81V512a41.88,41.88,0,0,1-2.17,13.73,31.37,31.37,0,0,1-6.41,11,30.11,30.11,0,0,1-10.36,7.4A34.7,34.7,0,0,1,534.66,546.87ZM554.08,512v-2.64a21,21,0,0,0-4.62-14.13,18.24,18.24,0,0,0-14.66-5.41,17.84,17.84,0,0,0-14.53,5.41,21.7,21.7,0,0,0-4.49,14.26v3a44.06,44.06,0,0,0,.79,8.65,17.3,17.3,0,0,0,2.91,6.8,13.58,13.58,0,0,0,5.81,4.49A24.32,24.32,0,0,0,534.8,534a23.6,23.6,0,0,0,9.51-1.65,14.38,14.38,0,0,0,5.87-4.62,17.87,17.87,0,0,0,3-7A41.58,41.58,0,0,0,554.08,512Z" transform="translate(0 -451.71)"/><path id="Path_9379" data-name="Path 9379" class="cls-2" d="M578.7,455.68l14.4-4v74.22a7.11,7.11,0,0,0,6.16,8,6.84,6.84,0,0,0,2,0h5.15v11.23a36.45,36.45,0,0,1-5.28,1.12,37.75,37.75,0,0,1-5.42.46,18.51,18.51,0,0,1-6.79-1.19,16.39,16.39,0,0,1-5.42-3.36A15,15,0,0,1,580,536.9a17,17,0,0,1-1.25-6.61Z" transform="translate(0 -451.71)"/><path id="Path_9380" data-name="Path 9380" class="cls-2" d="M625.37,451.71a7.79,7.79,0,0,1,5.53,2.12,7.57,7.57,0,0,1,2.37,5.52,7.09,7.09,0,0,1-2.37,5.53,7.77,7.77,0,0,1-5.53,2.12,7.55,7.55,0,0,1-5.53-2.12,7,7,0,0,1-2.37-5.53,7.67,7.67,0,0,1,7.9-7.64Zm-6.87,93.38V478.52h14.4v66.57Z" transform="translate(0 -451.71)"/><path id="Path_9381" data-name="Path 9381" class="cls-2" d="M677.54,476.94a34.37,34.37,0,0,1,11.75,2.11,27.17,27.17,0,0,1,10.05,6.34l-9,8.85a20.76,20.76,0,0,0-6.41-3.63,24.22,24.22,0,0,0-6.93-.86,18.71,18.71,0,0,0-14.6,5.08,21.42,21.42,0,0,0-4.55,14.73v2.12a41.63,41.63,0,0,0,.92,9.24,17.54,17.54,0,0,0,3.11,6.93,14.24,14.24,0,0,0,5.87,4.42,23.4,23.4,0,0,0,9.25,1.59,31.63,31.63,0,0,0,7.39-.79,17.07,17.07,0,0,0,6.61-3.43l8.45,8.18a26.06,26.06,0,0,1-10.24,6.74A35.81,35.81,0,0,1,677,546.67a39.26,39.26,0,0,1-14.79-2.51A25.77,25.77,0,0,1,652.06,537a29.8,29.8,0,0,1-5.88-11,48.57,48.57,0,0,1-1.91-14.13v-2.51a31.91,31.91,0,0,1,8.78-23.84A33.38,33.38,0,0,1,677.54,476.94Z" transform="translate(0 -451.71)"/><path id="Path_9382" data-name="Path 9382" class="cls-2" d="M744.78,559.22a39.43,39.43,0,0,1-2.37,4.95,18.93,18.93,0,0,1-3.24,4.16,14.93,14.93,0,0,1-4.29,2.91,13.38,13.38,0,0,1-5.41,1,33.75,33.75,0,0,1-5.22-.46,42.16,42.16,0,0,1-5.22-1.12V559.35h5.53a10.69,10.69,0,0,0,4.16-.59,6.63,6.63,0,0,0,2.44-3.64l4-10.7a8.12,8.12,0,0,1-8.33-5.28L704.62,480.9l13.6-4,19,49.66a3.57,3.57,0,0,0,3.7,2.37l19.28-52,13.73,4Z" transform="translate(0 -451.71)"/><path id="Path_9383" data-name="Path 9383" class="cls-2" d="M777.07,531.5a7.26,7.26,0,0,1,5.36,2.37,7.63,7.63,0,0,1,2.31,5.42,7.11,7.11,0,0,1-2.31,5.35,7.6,7.6,0,0,1-5.36,2.17,8.06,8.06,0,0,1-5.52-2.11,6.9,6.9,0,0,1-2.38-5.41,7.35,7.35,0,0,1,2.38-5.53A7.83,7.83,0,0,1,777.07,531.5Z" transform="translate(0 -451.71)"/><path id="Path_9384" data-name="Path 9384" class="cls-2" d="M824.12,477.08a34.15,34.15,0,0,1,11.75,2.12,27.15,27.15,0,0,1,10,6.33l-9,8.86a20.59,20.59,0,0,0-6.41-3.64,24.21,24.21,0,0,0-6.93-.85A18.71,18.71,0,0,0,809,495a21.39,21.39,0,0,0-4.55,14.73v2.11a41.72,41.72,0,0,0,.92,9.25,17.79,17.79,0,0,0,3.1,6.93,14.42,14.42,0,0,0,5.88,4.42A23.4,23.4,0,0,0,823.6,534a31.64,31.64,0,0,0,7.39-.8,16.83,16.83,0,0,0,6.6-3.43l8.46,8.19a25.93,25.93,0,0,1-10.24,6.73,35.57,35.57,0,0,1-12.21,2.11,39.26,39.26,0,0,1-14.79-2.51,25.77,25.77,0,0,1-10.17-7.13,29.8,29.8,0,0,1-5.88-11,48.57,48.57,0,0,1-1.91-14.13v-2.51a31.91,31.91,0,0,1,8.78-23.84A33.38,33.38,0,0,1,824.12,477.08Z" transform="translate(0 -451.71)"/><path id="Path_9385" data-name="Path 9385" class="cls-2" d="M885.15,546.82a34,34,0,0,1-14-2.71A28.67,28.67,0,0,1,861,536.72a31.88,31.88,0,0,1-6.21-11.05,43.33,43.33,0,0,1-2.11-13.74v-2.51a37.23,37.23,0,0,1,2.44-12.95,29.91,29.91,0,0,1,6.53-10.23,30.33,30.33,0,0,1,10.17-6.74,34.79,34.79,0,0,1,13.34-2.44,34.31,34.31,0,0,1,13,2.44,33.85,33.85,0,0,1,10.5,6.67,29.77,29.77,0,0,1,7,10.17,32.76,32.76,0,0,1,2.51,12.81v2.78A42.15,42.15,0,0,1,916,525.66a31.58,31.58,0,0,1-6.41,11.06,30.16,30.16,0,0,1-10.37,7.39A34.57,34.57,0,0,1,885.15,546.82ZM904.57,512v-2.65A21,21,0,0,0,900,495.18a18.28,18.28,0,0,0-14.67-5.41,17.85,17.85,0,0,0-14.52,5.41,21.6,21.6,0,0,0-4.49,14.27v3a43.34,43.34,0,0,0,.79,8.66,17.3,17.3,0,0,0,2.91,6.8,13.56,13.56,0,0,0,5.81,4.48,24.27,24.27,0,0,0,9.5,1.59,23.68,23.68,0,0,0,9.52-1.65,14.44,14.44,0,0,0,5.87-4.62,18,18,0,0,0,3-7,43.06,43.06,0,0,0,.88-8.77Z" transform="translate(0 -451.71)"/><path id="Path_9386" data-name="Path 9386" class="cls-2" d="M943.29,484.88a19,19,0,0,1,3.17-3,24.2,24.2,0,0,1,4-2.44,28.9,28.9,0,0,1,4.42-1.72,15.18,15.18,0,0,1,4.23-.66,28.79,28.79,0,0,1,11,2,19.21,19.21,0,0,1,8.39,7.13,45,45,0,0,1,9.24-6.67,23.43,23.43,0,0,1,11.1-2.44,29.71,29.71,0,0,1,10.1,1.65,23.65,23.65,0,0,1,7.92,4.69,20.66,20.66,0,0,1,5.22,7.39,25.14,25.14,0,0,1,1.85,9.91v44.51h-14.4V502.05a14.69,14.69,0,0,0-2.44-9,10.7,10.7,0,0,0-9-3.24,14.35,14.35,0,0,0-7.39,1.85,33,33,0,0,0-6.21,4.75v48.87h-14.4V500.6a10.39,10.39,0,0,0-3-8.26,12.19,12.19,0,0,0-8.26-2.57,21.74,21.74,0,0,0-8.45,1.71,21.21,21.21,0,0,0-7.13,4.89v48.87h-14.4V495.07a37.57,37.57,0,0,0-.46-6.27,21.92,21.92,0,0,0-1.93-5.79l12.81-5.94a38.68,38.68,0,0,1,1.85,3.7,24.39,24.39,0,0,1,1.32,4.09Z" transform="translate(0 -451.71)"/></g></g></svg>