<?xml version="1.0" encoding="utf-8"?>
<!-- Generator: Adobe Illustrator 26.3.1, SVG Export Plug-In . SVG Version: 6.00 Build 0)  -->
<svg version="1.1" id="Layer_1" xmlns="http://www.w3.org/2000/svg" xmlns:xlink="http://www.w3.org/1999/xlink" x="0px" y="0px"
	 viewBox="0 0 1024 1024" style="enable-background:new 0 0 1024 1024;" xml:space="preserve">
<style type="text/css">
	.st0{fill:#ADAEFF;}
	.st1{fill:#E4E4E8;}
	.st2{fill:#5652F2;}
	.st3{fill:#7071F4;}
	.st4{fill:#25AD4E;}
	.st5{fill:#0B8932;}
</style>
<g id="travel" transform="translate(-51)">
	<g id="Mask_Group_171">
		<g id="airplane" transform="translate(48.218 -2.909)">
			<path id="Path_9569" class="st0" d="M820,407.2L605.9,621.3l238,394.3c6.7,11,21,14.5,32,7.9c1.6-1,3.1-2.1,4.4-3.4l52.9-52.9
				c30.9-30.8,41.9-76.3,28.5-117.8L820,407.2z"/>
			<path id="Path_9570" class="st1" d="M384.2,806.7c59.6-35.5,114.6-78.3,163.6-127.3L963,264.3c54.5-54.5,85.1-205.5,46.5-244
				c-38.9-38.9-189.5-8-244,46.5l-415.2,415c-49.1,49.1-91.8,104-127.3,163.6L75.4,923.3c-6,11.1-1.8,25,9.3,30.9
				c6.7,3.6,14.8,3.6,21.6,0L384.2,806.7z"/>
			<path id="Path_9571" class="st0" d="M14.1,185.7l394.2,238.1l214.3-214.1L180.4,68c-41.5-13.5-87.1-2.5-117.9,28.4l-52.9,53
				c-9.1,9.1-9,23.9,0.1,32.9C11,183.6,12.5,184.8,14.1,185.7z"/>
			<path id="Path_9572" class="st2" d="M935.7,216.3h-1c-12.8-0.5-22.8-11.4-22.3-24.2c0,0,0,0,0,0c0.8-19.5-6.6-38.5-20.4-52.4
				c-13.8-13.9-32.9-21.4-52.5-20.4c-12.7,0.2-23.3-9.6-24.2-22.3c-0.6-12.8,9.4-23.7,22.2-24.3c0,0,0.1,0,0.1,0
				c64.2-2.8,118.5,47,121.3,111.2c0.1,3.4,0.1,6.8,0,10.2C958.5,206.5,948.2,216.4,935.7,216.3z"/>
			<path id="Path_9573" class="st3" d="M27.9,677.8c-12.8-0.9-24,8.7-24.9,21.6c-0.5,6.7,1.9,13.2,6.6,18L124,831.9l74.8-140.8
				L27.9,677.8z"/>
			<path id="Path_9574" class="st3" d="M312.1,1020c9.2,9,23.9,8.9,32.9-0.2c4.7-4.8,7.1-11.3,6.6-18l-13.2-170.9l-140.8,74.8
				L312.1,1020z"/>
		</g>
	</g>
	<g id="Mask_Group_172">
		<g id="ticket" transform="translate(84.348 33.348)">
			<path id="Path_9575" class="st4" d="M969.8,855c0-11.5,9.3-20.8,20.8-20.8v-31.4c-11.5,0-20.9-9.3-20.9-20.9s9.3-20.9,20.9-20.9
				v-31.3c-11.5,0-20.9-9.3-20.9-20.9c0-11.5,9.3-20.9,20.9-20.9v-31.3c-11.5,0-20.9-9.3-20.9-20.9s9.3-20.9,20.9-20.9v-31.3
				c0-5.7-4.6-10.4-10.4-10.4h-62.6c0,11.5-9.3,20.9-20.9,20.9s-20.9-9.3-20.9-20.9H521c-5.8,0-10.4,4.7-10.4,10.4V615
				c11.5,0,20.9,9.3,20.9,20.9s-9.3,20.9-20.9,20.9v31.3c11.5,0,20.9,9.3,20.9,20.9s-9.3,20.9-20.9,20.9V761
				c11.5,0,20.9,9.3,20.9,20.9s-9.3,20.9-20.9,20.9l0,0v31.4c11.5,0,20.9,9.3,20.9,20.9c0,11.5-9.3,20.9-20.9,20.9l0,0v41.7
				c0,5.8,4.7,10.4,10.4,10.4c0,0,0,0,0,0h354.8c0-11.5,9.3-20.9,20.9-20.9s20.9,9.3,20.9,20.9h62.6c5.8,0,10.4-4.7,10.4-10.4l0,0
				v-41.8c-11.5,0-20.8-9.2-20.9-20.7C969.8,855.1,969.8,855,969.8,855z"/>
			<path id="Path_9576" class="st5" d="M833.3,844.6H584.6c-6,0.2-11-4.4-11.3-10.4v-167c0.3-6,5.3-10.7,11.3-10.4h248.7
				c6-0.2,11,4.4,11.3,10.4v167C844.3,840.1,839.3,844.8,833.3,844.6z"/>
			<path id="Path_9577" class="st5" d="M896.7,677.6L896.7,677.6c-5.8,0-10.4-4.7-10.4-10.4l0,0v-20.9c0-5.8,4.7-10.4,10.4-10.4l0,0
				l0,0c5.8,0,10.4,4.7,10.4,10.4l0,0v20.8C907.2,672.9,902.6,677.6,896.7,677.6C896.8,677.6,896.8,677.6,896.7,677.6z"/>
			<path id="Path_9578" class="st5" d="M896.7,740.2L896.7,740.2c-5.8,0-10.4-4.7-10.4-10.4v0V709c0-5.8,4.7-10.4,10.4-10.4l0,0l0,0
				c5.8,0,10.4,4.7,10.4,10.4l0,0v20.8C907.2,735.5,902.5,740.2,896.7,740.2L896.7,740.2z"/>
			<path id="Path_9579" class="st5" d="M896.7,802.8L896.7,802.8c-5.8,0-10.4-4.7-10.4-10.4l0,0v-20.8c0-5.8,4.7-10.4,10.4-10.4l0,0
				l0,0c5.8,0,10.4,4.7,10.4,10.4l0,0v20.8C907.2,798.2,902.5,802.8,896.7,802.8L896.7,802.8z"/>
			<path id="Path_9580" class="st5" d="M896.7,865.4L896.7,865.4c-5.8,0-10.4-4.7-10.4-10.4l0,0v-20.8c0-5.8,4.7-10.4,10.4-10.4l0,0
				l0,0c5.8,0,10.4,4.7,10.4,10.4l0,0V855C907.2,860.8,902.5,865.4,896.7,865.4L896.7,865.4z"/>
		</g>
	</g>
</g>
</svg>
