<?xml version="1.0" encoding="utf-8"?>
<!-- Generator: Adobe Illustrator 26.3.1, SVG Export Plug-In . SVG Version: 6.00 Build 0)  -->
<svg version="1.1" id="Layer_1" xmlns="http://www.w3.org/2000/svg" xmlns:xlink="http://www.w3.org/1999/xlink" x="0px" y="0px"
	 viewBox="0 0 1024 1024" style="enable-background:new 0 0 1024 1024;" xml:space="preserve">
<style type="text/css">
	.st0{fill:#7071F4;}
	.st1{fill:#ADAEFF;}
	.st2{fill:#5652F2;}
	.st3{fill:#E4E4E8;}
	.st4{fill:#25AD4E;}
	.st5{fill:#0B8932;}
</style>
<g id="stores" transform="translate(-221 -517)">
	<g id="Mask_Group_170">
		<g id="basket" transform="translate(219.609 516.305)">
			<path class="st0" d="M905.4,747.2c-39.8,0-72-32.2-72-72c0-39.8,32.2-72,72-72c11.1,0,21.6,2.5,31,7V429.3
				c0-12.3-10-22.3-22.3-22.3c0,0,0,0,0,0H112.7c-12.3,0-22.3,10-22.3,22.3v467.5c0,61.5,49.8,111.3,111.3,111.3H825
				c61.5,0,111.3-49.8,111.3-111.3c0,0,0,0,0,0V740.2C927,744.7,916.5,747.2,905.4,747.2z"/>
			<path id="Path_9563" class="st1" d="M980.9,295.7h-935c-24.6,0-44.5,19.9-44.5,44.5l0,0v89c0,24.6,19.9,44.5,44.5,44.5h935
				c24.6,0,44.5-19.9,44.5-44.5v-89C1025.4,315.7,1005.5,295.7,980.9,295.7z"/>
			<path id="Path_9564" class="st2" d="M513.4,896.8c-12.3,0-22.3-10-22.3-22.3V607.3c0-12.3,10-22.3,22.3-22.3
				c12.3,0,22.3,10,22.3,22.3l0,0v267.2C535.7,886.8,525.7,896.8,513.4,896.8C513.4,896.8,513.4,896.8,513.4,896.8z"/>
			<path id="Path_9565" class="st2" d="M335.3,896.8c-12.3,0-22.3-10-22.3-22.3V607.3c0-12.3,10-22.3,22.3-22.3s22.3,10,22.3,22.3
				l0,0v267.2C357.6,886.8,347.6,896.8,335.3,896.8C335.3,896.8,335.3,896.8,335.3,896.8z"/>
			<path id="Path_9566" class="st2" d="M691.5,896.8c-12.3,0-22.3-10-22.3-22.3V607.3c0-12.3,10-22.3,22.3-22.3
				c12.3,0,22.3,10,22.3,22.3l0,0v267.2C713.8,886.8,703.8,896.8,691.5,896.8C691.5,896.8,691.5,896.8,691.5,896.8z"/>
			<path id="Path_9567" class="st3" d="M201.7,407c-12.3,0-22.2-10-22.2-22.3c0-3.4,0.8-6.8,2.3-9.9L359.9,18.7
				c5.4-11,18.8-15.6,29.8-10.2s15.6,18.8,10.2,29.8c-0.1,0.1-0.1,0.2-0.2,0.3L221.7,394.8C217.9,402.3,210.2,407.1,201.7,407z"/>
			<path id="Path_9568" class="st3" d="M825,407c-8.5,0-16.2-4.7-20-12.3L626.9,38.5c-5.2-11.1-0.4-24.4,10.7-29.6
				c10.7-5,23.5-0.8,29.1,9.7l178.1,356.2c5.5,11,1.1,24.4-9.9,29.9C831.8,406.2,828.5,407,825,407L825,407z"/>
		</g>
	</g>
	<g id="Mask_Group_169" transform="translate(255 551)">
		<g id="tag_00000111908397151918295620000001118165906959943326_" transform="translate(0 0.001)">
			<path id="Path_9560" class="st4" d="M526,745.8l238.1-238.1c2-2.1,4.8-3.2,7.7-3.2h207.3c6,0,10.9,4.9,10.9,10.9v207.3
				c0,2.9-1.2,5.7-3.2,7.7L748.6,968.5c-21.3,21.3-55.8,21.3-77.1,0L525.9,822.9C504.6,801.6,504.6,767.1,526,745.8L526,745.8z
				 M859.1,679.1c24.1,0,43.6-19.5,43.6-43.6s-19.5-43.6-43.6-43.6s-43.6,19.5-43.6,43.6c0,0,0,0,0,0
				C815.4,659.5,835,679.1,859.1,679.1C859.1,679.1,859.1,679.1,859.1,679.1z"/>
			<path id="Path_9561" class="st5" d="M859.1,690c30.1,0,54.6-24.4,54.6-54.6c0-30.1-24.4-54.6-54.6-54.6
				c-30.1,0-54.6,24.4-54.6,54.6l0,0C804.5,665.6,829,690,859.1,690z M859.1,602.7c18.1,0,32.7,14.7,32.7,32.7s-14.7,32.7-32.7,32.7
				s-32.7-14.7-32.7-32.7l0,0C826.4,617.4,841,602.7,859.1,602.7z"/>
		</g>
	</g>
</g>
</svg>
