<?xml version="1.0" encoding="utf-8"?>
<!-- Generator: Adobe Illustrator 26.3.1, SVG Export Plug-In . SVG Version: 6.00 Build 0)  -->
<svg version="1.1" id="Layer_1" xmlns="http://www.w3.org/2000/svg" xmlns:xlink="http://www.w3.org/1999/xlink" x="0px" y="0px"
	 viewBox="0 0 1024 1024" style="enable-background:new 0 0 1024 1024;" xml:space="preserve">
<style type="text/css">
	.st0{fill:#5652F2;}
	.st1{fill:#E4E4E8;}
	.st2{fill:#7071F4;}
	.st3{fill:#ADAEFF;}
	.st4{fill:#FFFFFF;}
	.st5{fill:#25AD4E;}
	.st6{fill:#0B8932;}
</style>
<g id="services">
	<g id="headset" transform="translate(2.79 0)">
		<path id="Path_9581" class="st0" d="M175.3,1001.4h244.8v-44.5H175.3C113.8,956.9,64.1,907.1,64,845.6V689.9H19.5v155.8
			C19.6,931.6,89.3,1001.3,175.3,1001.4z"/>
		<path id="Path_9582" class="st1" d="M504.9,0.3c252.9,9.6,449.3,225.4,449.3,478.5v255.6c0,61.5-49.8,111.3-111.3,111.3h-66.8
			c-36.9,0-66.8-29.9-66.8-66.8l0,0V556.4c0-36.9,29.9-66.8,66.8-66.8l0,0h111.3v-12.4c0-216.9-168.4-401.9-385.1-410.1
			C281,58.8,94.9,231.5,86.6,452.8c-0.2,4.8-0.3,9.7-0.3,14.6v22.3h133.5c36.9,0,66.8,29.9,66.8,66.8l0,0v222.5
			c0,36.9-29.9,66.8-66.8,66.8c0,0,0,0,0,0h-89.1c-61.5,0-111.3-49.8-111.3-111.3l0,0V467.3C19.8,208.9,229.5-0.3,487.8,0
			C493.5,0,499.2,0.1,504.9,0.3z"/>
		<path id="Path_9583" class="st2" d="M753.9,489.6c-36.9,0-66.8,29.9-66.8,66.8v222.5c0,36.9,29.9,66.8,66.8,66.8c0,0,0,0,0,0h89
			c61.5,0,111.3-49.8,111.3-111.3l0,0V489.6L753.9,489.6z"/>
		<path id="Path_9584" class="st3" d="M753.9,489.6h44.5v356.1h-44.5c-36.9,0-66.8-29.9-66.8-66.8l0,0V556.4
			C687.1,519.5,717,489.6,753.9,489.6C753.9,489.6,753.9,489.6,753.9,489.6z"/>
		<path id="Path_9585" class="st2" d="M219.8,489.6c36.9,0,66.8,29.9,66.8,66.8v222.5c0,36.9-29.9,66.8-66.8,66.8l0,0h-89
			c-61.5,0-111.3-49.8-111.3-111.3V489.6L219.8,489.6z"/>
		<path id="Path_9586" class="st3" d="M219.8,489.6h-44.5v356.1h44.5c36.9,0,66.8-29.9,66.8-66.8l0,0V556.4
			C286.5,519.5,256.7,489.6,219.8,489.6C219.8,489.6,219.8,489.6,219.8,489.6z"/>
		<path id="Rectangle_3236" class="st0" d="M266.6,912.2h220.3c12.3,0,22.3,10,22.3,22.3v67.3c0,12.3-10,22.3-22.3,22.3H266.6
			c-12.3,0-22.3-10-22.3-22.3v-67.3C244.3,922.1,254.3,912.2,266.6,912.2z"/>
	</g>
	<circle id="Ellipse_226" class="st4" cx="761.6" cy="784" r="128"/>
	<g id="Mask_Group_174" transform="translate(-52)">
		<g id="cogwheel" transform="translate(85.348 33.348)">
			<path id="Path_9587" class="st5" d="M958.7,708.9l-59.3-4.9c-3.9-14.4-9.7-28.3-17.1-41.3l38.5-45.5c3.5-4.1,3.2-10.3-0.6-14.1
				l-44.4-44.3c-3.8-3.8-10-4.1-14.1-0.6l-45.5,38.5c-13-7.5-26.9-13.2-41.3-17.2l-4.9-59.3c-0.4-5.4-5-9.6-10.4-9.6h-62.5
				c-5.5,0-10,4.2-10.4,9.6l-4.9,59.3c-14.4,3.9-28.3,9.7-41.3,17.1l-45.5-38.4c-4.1-3.5-10.3-3.2-14.1,0.6l-44.4,44.3
				c-3.8,3.8-4.1,10-0.6,14.1l38.5,45.5c-7.5,13-13.2,26.9-17.2,41.3l-59.3,4.9c-5.4,0.4-9.6,5-9.6,10.4v62.6c0,5.5,4.2,10,9.6,10.4
				l59.3,5c3.9,14.4,9.7,28.3,17.1,41.3l-38.5,45.5c-3.5,4.1-3.2,10.3,0.6,14.1l44.3,44.3c3.8,3.8,10,4.1,14.1,0.6l45.5-38.5
				c13,7.5,26.9,13.3,41.3,17.2l4.9,59.3c0.4,5.4,5,9.6,10.4,9.6h62.6c5.5,0,10-4.2,10.4-9.6l5-59.4c14.4-3.9,28.3-9.7,41.3-17.1
				l45.6,38.5c4.1,3.5,10.3,3.2,14.1-0.6l44.3-44.3c3.8-3.8,4.1-10,0.6-14.1l-38.5-45.5c7.5-13,13.2-26.9,17.2-41.3l59.3-4.9
				c5.4-0.4,9.6-5,9.6-10.4v-62.5C968.4,713.9,964.2,709.3,958.7,708.9z M728.3,823.7c-40.3,0-73-32.7-73-73c0-40.3,32.7-73,73-73
				c40.3,0,73,32.7,73,73C801.4,791,768.7,823.7,728.3,823.7L728.3,823.7z"/>
			<path id="Path_9588" class="st6" d="M728.3,646.3c-57.6,0-104.4,46.7-104.4,104.4S670.7,855,728.3,855s104.4-46.7,104.4-104.4
				l0,0C832.6,693,785.9,646.3,728.3,646.3z M728.3,823.7c-40.3,0-73-32.7-73-73c0-40.3,32.7-73,73-73c40.3,0,73,32.7,73,73
				C801.3,791,768.6,823.7,728.3,823.7L728.3,823.7z"/>
		</g>
	</g>
</g>
</svg>
