<?xml version="1.0" encoding="utf-8"?>
<!-- Generator: Adobe Illustrator 26.3.1, SVG Export Plug-In . SVG Version: 6.00 Build 0)  -->
<svg version="1.1" id="Layer_1" xmlns="http://www.w3.org/2000/svg" xmlns:xlink="http://www.w3.org/1999/xlink" x="0px" y="0px"
	 viewBox="0 0 1024 1024" style="enable-background:new 0 0 1024 1024;" xml:space="preserve">
<style type="text/css">
	.st0{fill:#5652F2;}
	.st1{fill:#ADAEFF;}
	.st2{fill:#7071F4;}
	.st3{fill:#25AD4E;}
	.st4{fill:#E4E4E8;}
</style>
<g id="finance" transform="translate(-50)">
	<g id="Mask_Group_176">
		<g id="umbrella-13" transform="translate(48.609 -1.391)">
			<path id="Path_9593" class="st0" d="M622.5,1015.1c-85.2-0.1-154.2-69.1-154.3-154.3V508.2c0-12.2,9.9-22,22-22
				c12.2,0,22,9.9,22,22v352.6c0.7,60.9,50.7,109.6,111.5,108.9c59.8-0.7,108.1-49,108.9-108.9c0-12.2,9.9-22,22-22
				c12.2,0,22,9.9,22,22l0,0C776.6,946,707.6,1015,622.5,1015.1z"/>
			<path id="Path_9594" class="st1" d="M490.2,89.5c-238-0.9-437.5,179.7-460.4,416.6c-1.2,12.1,7.7,22.9,19.8,24.1
				c0.7,0.1,1.4,0.1,2.2,0.1h877c12.2,0,22-9.9,22-22.1c0-0.7,0-1.4-0.1-2.2C927.8,269.2,728.3,88.7,490.2,89.5z"/>
			<path id="Path_9595" class="st2" d="M490.2,89.5C359.7,154.5,314,314.3,314,530.3h352.6C666.5,314.3,620.8,154.5,490.2,89.5z"/>
			<path id="Path_9596" class="st0" d="M490.2,111.6c-12.2,0-22-9.9-22-22V23.4c0-12.2,9.9-22,22-22c12.2,0,22,9.9,22,22v66.1
				C512.3,101.7,502.4,111.6,490.2,111.6z"/>
		</g>
	</g>
	<g id="Mask_Group_177">
		<g id="round-dollar" transform="translate(83.348 33.348)">
			<circle id="Ellipse_224" class="st3" cx="724.8" cy="753.1" r="237.6"/>
			<path id="Path_9598" class="st4" d="M776.4,691.1c-0.4,5.7,3.8,10.7,9.5,11.1c5.7,0.4,10.7-3.8,11.1-9.5c0-0.5,0-1.1,0-1.6
				c0-34.2-27.8-61.9-62-62v-10.3c0.4-5.7-3.8-10.7-9.5-11.1c-5.7-0.4-10.7,3.8-11.1,9.5c0,0.5,0,1.1,0,1.6v10.3
				c-34.2,0-61.9,27.8-62,62c0,40.6,32.6,52,62,59.7v84.9c-22.8,0-41.3-18.5-41.3-41.3c-0.4-5.7-5.4-9.9-11.1-9.5
				c-5.1,0.4-9.1,4.4-9.5,9.5c0,34.2,27.7,61.9,61.9,62v10.3c-0.4,5.7,3.8,10.7,9.5,11.1c5.7,0.4,10.7-3.8,11.1-9.5
				c0-0.5,0-1.1,0-1.6v-10.3c34.2,0,61.9-27.8,62-62c0-40.6-32.6-52-62-59.7v-84.9C757.9,649.8,776.4,668.3,776.4,691.1z
				 M776.4,794.4c0,22.8-18.5,41.3-41.4,41.3l0,0v-79.5C761,763.3,776.4,771.3,776.4,794.4z M714.4,729.4
				c-25.9-7.2-41.3-15.1-41.3-38.3c0-22.8,18.5-41.3,41.3-41.3V729.4z"/>
		</g>
	</g>
</g>
</svg>
